<svg width="48" height="48" viewBox="0 0 48 48" fill="none" xmlns="http://www.w3.org/2000/svg">
<path d="M28.6465 12C38.2466 12 39.9542 17.2464 38.585 24.6006C37.6773 29.5547 35.3845 33.3391 31.5537 35.1084C29.8153 35.9084 28.1848 36.3555 24.3389 36.3555H13.4463L14.3389 31.293H23.9229C29.6921 31.3084 31.2159 28.8009 31.9697 26.6162C32.2467 25.8008 32.9084 23.2619 32.9238 21.7695C32.9699 18.8464 31.5383 17.0771 26.6768 17.0771L16.8154 17.0615L17.7236 12H28.6465ZM24.2002 21.6318C24.2002 21.6318 24.0775 22.232 23.7236 23.709C23.4621 24.8321 23.0462 26.6934 20.1846 26.6934H9C9.00327 26.6775 9.12745 26.0734 9.47656 24.6162C9.73811 23.493 10.1543 21.6318 13.0156 21.6318H24.2002Z" fill="#4C7EFF"/>
</svg>
